<?xml version="1.0" encoding="utf-8"?>
<!-- Generator: Adobe Adobe Illustrator 24.2.0, SVG Export Plug-In . SVG Version: 6.00 Build 0)  -->
<svg version="1.1" id="Layer_2" xmlns="http://www.w3.org/2000/svg" xmlns:xlink="http://www.w3.org/1999/xlink" x="0px" y="0px"
	 viewBox="0 0 1728 1296" style="enable-background:new 0 0 1728 1296;" xml:space="preserve">
<style type="text/css">
	.st0{fill:#FFFFFF;}
	.st1{fill:#FFFFFF;stroke:#000000;stroke-miterlimit:10;}
	.st2{fill:none;stroke:#000000;stroke-width:4;stroke-linecap:round;stroke-linejoin:round;stroke-miterlimit:10;}
	.st3{fill:none;stroke:#000000;stroke-width:3;stroke-linecap:round;stroke-linejoin:round;stroke-miterlimit:10;}
	.st4{fill:none;stroke:#000000;stroke-width:9;stroke-linecap:round;stroke-linejoin:round;stroke-miterlimit:10;}
	.st5{fill:none;stroke:#000000;stroke-width:8;stroke-linecap:round;stroke-linejoin:round;stroke-miterlimit:10;}
	.st6{fill:none;stroke:#000000;stroke-width:13;stroke-linecap:round;stroke-linejoin:round;stroke-miterlimit:10;}
	.st7{fill:none;stroke:#000000;stroke-linecap:round;stroke-linejoin:round;stroke-miterlimit:10;}
</style>
<g id="Feet">
	<path id="Feetfill_1_" class="st0" d="M741.45,897.57c-4.64,1.86-8.71,5.11-11.55,9.23c-1.15,1.67-2.13,3.61-1.95,5.63
		c0.22,2.42,2.22,4.5,4.59,5.03c2.37,0.53,4.95-0.39,6.63-2.14c-2.27,3.28,0.14,8.37,3.99,9.39c3.85,1.02,8.06-1.44,9.84-5
		c-0.47,3.18,1.44,6.57,4.42,7.79c4.69,1.94,10.19-1.69,12.13-6.38c1.94-4.69,1.31-10,0.65-15.03c-0.09-0.65-0.18-1.33-0.58-1.84
		c-0.66-0.85-1.87-0.98-2.95-1.05C758.17,902.61,749.76,900.69,741.45,897.57z"/>
	<path id="Feetfill" class="st0" d="M597.99,897.05c-4.39,5.28-9,11.06-9.46,17.92c-0.11,1.69,0.25,3.72,1.8,4.4
		c0.92,0.41,1.99,0.19,2.96-0.08c3.37-0.95,6.57-2.53,9.37-4.65c-0.81,1.79-1.62,3.9-0.69,5.63c1.02,1.9,3.75,2.27,5.7,1.36
		c1.95-0.91,3.31-2.72,4.58-4.46c0.1,1.05-0.32,2.11-0.19,3.16c0.23,1.81,2.08,3.06,3.9,3.24c3.84,0.37,7.21-3.06,8.16-6.8
		c0.95-3.74,0.09-7.67-0.77-11.43c-2.9,1.89-6.65,2.12-10.02,1.34c-3.37-0.78-6.46-2.46-9.46-4.2
		C601.15,900.89,598.24,898.98,597.99,897.05z"/>
	<path id="Feetfill_2_" class="st0" d="M816.97,918.99c-7.74,0.43-15.99,1.04-22.15,5.75c-1.79,1.37-3.47,3.48-2.91,5.67
		c0.41,1.6,1.97,2.72,3.6,3.02c1.63,0.3,3.3-0.08,4.87-0.6c-1.39,1.18-2.77,2.37-4.16,3.55c-1.02,0.87-2.1,1.84-2.38,3.15
		c-0.46,2.15,1.55,4.19,3.71,4.59c2.16,0.4,4.34-0.36,6.41-1.1c-0.87,0.8-1.75,1.63-2.27,2.69c-0.52,1.06-0.59,2.42,0.13,3.36
		c0.88,1.13,2.53,1.24,3.95,1.06c4.33-0.55,8.27-2.93,11.43-5.94s5.65-6.65,8.11-10.26c-3.68-0.96-5.43-5.05-6.68-8.65
		C817.87,923.05,817.1,920.83,816.97,918.99z"/>
</g>
<path id="Bodyfill" class="st1" d="M613.7,438.36c-1.81,27.44-0.53,55.12-4.38,82.35c-4.12,29.2-14.03,57.22-20.94,85.89
	c-6.91,28.67-10.76,59.06-0.75,88.89c0.24,56.07,0.47,112.13,0.71,168.2c0.06,14.87,1.55,32.41,14.28,40.1
	c8.92,5.39,20.82,3.62,29.59-2s14.96-14.45,20.21-23.45c7.31-12.5,13.29-25.78,17.82-39.53c4.73-14.36,7.92-20.35,14.83-33.8
	c6.91-13.45,5.19-17.24,18.38-26.34c3.07-2.12,11.26-6.3,14.99-6.15c11.17,0.46,15.13,9.63,15.51,17.57
	c0.9,18.47-2.66,38.49-4.32,59.56c-0.76,9.65,0.12,32.98,4.41,41.66c6.43,13,52.01,22.83,62.75-9.19
	c10.49-10.08,19.42-21.78,26.39-34.55c1.18,6.61,2.36,13.23,3.54,19.84c0.79,4.42,1.58,8.91,1.1,13.37
	c-0.73,6.86-4.37,13.01-7.13,19.34c-2.36,5.41-4.11,11.08-5.2,16.88c-0.49,2.58-0.85,5.26-0.21,7.8c1.21,4.82,5.67,8.09,10.14,10.27
	c16.98,8.28,37.22,6.51,55.36,1.26c12.17-3.52,25.14-8.53,35.1-6.36c34,9.71,70.84,16.27,106.2,16.77
	c10.26,0.14,21.57-1.72,31.72-3.23c16.34-2.43,29.78-7.61,44.31-15.47c28.31-15.31,54.55-41.57,71.44-70.4
	c3.33-3.24,6.66-6.48,9.99-9.72c-1.82,11.72-3.63,23.44-5.45,35.15c-1.13,7.31-2.26,14.86-0.49,22.04c1.77,7.19,7.18,14,14.51,15.06
	c9.12,1.32,17.14-6.43,21.34-14.63c11.83-23.06,5.78-51.15,11.84-76.35c1.69-7.03,4.32-13.82,5.62-20.92
	c1.2-6.56,1.24-13.27,1.08-19.93c-0.42-17.11-2.15-34.19-6.66-49.26c-1.39-16.57-2.98-33.16-6.49-49.41
	c-7.16-33.17-17.13-63.13-33.83-92.66c-17.75-31.38-36.62-60.57-58.41-89.28c-7.51-9.9-13.26-20.63-20.52-30.71
	c-8.38-11.63-25.13-38.76-34.39-49.71c-15.36-18.16-58.77-44.24-68.99-43.49c-31.21-19.56-45.42-25.12-74.13-45.29
	c0.22-15.31,1.02-31.1,7.63-44.91c2.35-4.91,5.38-9.45,8.41-13.98c12.42-18.58,24.83-37.17,37.25-55.75
	c-5.65-3.49-12.92-1.93-19.34-0.26c-15.48,4.02-30.96,8.04-46.44,12.06c-7.61,1.98-15.54,4.12-21.4,9.36
	c-4.91,4.39-7.86,10.51-10.69,16.46c-10.41,21.93-20.82,43.86-30.33,65.34c-18.11-6.44-31.14-10.53-48.84-10
	c-12.66,0.38-30.14,6.55-42.34,0.21c-10.92-5.68-33.03-4.67-48.45-9.3c-4.75-1.43-18.78-0.04-23.58,1.22
	c-3.08,0.81-10.95-3.46-12.45-5.74c-17.1-16.14-28.43-23.97-47.79-37.32c-4.08-2.81-8.48-5.65-13.43-5.89
	c-6.1-0.29-11.79,3.59-15.33,8.56c-3.54,4.98-5.32,10.96-7.03,16.82c-9.47,32.3-19.05,65.74-14.79,99.13
	c0.08,0.63,0.17,1.27,0.48,1.82c0.96,1.71,3.63,1.66,5.15,0.41c1.51-1.25,1.17-2.23,1.78-4.1c5.7-17.37,3.52-8.73,11.05-26.1
	c1.18-2.73,9.54-14.07,12.42-14.81c5.31-1.37,15.87,4.17,18.01,9.23c5.8,13.72,8.5,14.52,4,28.72
	C631,373.87,615.51,410.91,613.7,438.36z"/>
<g id="Outline">
	<g>
		<path class="st2" d="M608.85,903.47c-2.09-3.88-6.8-3.24-10.02-6.16c-8.74-7.91-9-18.09-9.21-27.91
			c-0.6-28.1,0.19-56.23-0.31-84.34c-0.62-34.91-1.52-69.82-4.71-104.63c-1.76-19.26-0.84-38.48,2.38-57.58
			c2.95-17.48,8.32-34.27,13.09-51.28c4.27-15.23,7.55-31.08,10.43-46.84c5.6-30.59,7.77-61.41,6.4-92.46
			c-0.43-9.88,3.75-18.96,4.54-28.42c0.86-10.24,5.29-19.27,7.29-29.07c1.78-8.68,6.64-16.83,13.23-23.7
			c12.63-13.17,27.93-22.58,43.03-32.35c5.7-3.69,9.32-10.97,17.83-9.83c2.93,0.39,6.12-0.55,8.88,0.94
			c8.38,4.55,17.74,4.18,26.75,5.66c31.95,5.24,64.3,2.47,96.4,4.78c3.64,0.26,6.66,1.4,9.77,3.21c3.24,1.87,6.94,2.91,10.47,0.11
			c5.35-4.25,10.46,0.01,15.34,1.03c11.11,2.32,21.05,7.86,30.86,13.51c2.5,1.44,5.58,3.49,8.04,3.09
			c15.76-2.59,26.08,8.12,38.13,14.75c14.58,8.02,26.5,19.92,41.25,27.68c11.36,5.98,22.89,11.43,34.74,16.45
			c15.27,6.48,27.68,17.6,38.99,29.73c21.73,23.29,39.08,49.86,56.73,76.21c6.35,9.48,14.54,17.65,20.18,27.62
			c11.5,20.33,26.31,38.65,37.02,59.33c9.04,17.46,19.88,34.19,25.43,53.37c1.55,5.36,4.13,10.69,6.85,15.17
			c4.64,7.64,5.34,15.58,6.02,23.77c1.15,13.85,5.56,27.01,8.32,40.51c4.34,21.2,9.53,42.3,7.75,64.09
			c-0.94,11.47-3.22,22.86-5.57,34.23c-2.17,10.53-5.71,20.98-6.72,31.53c-0.88,9.21,0.86,18.93,0.15,28.33
			c-1.13,14.97-6.52,28.16-20.09,36.49c-6.65,4.09-17.27-0.04-21.15-7.23c-5.44-10.09-3.67-20.44-2.3-30.87
			c0.64-4.89,1.13-9.88,2.53-14.56c1.4-4.65,0.59-8.77-0.96-13.01c-0.12-0.33-0.52-0.76-0.79-0.76c-0.27,0-0.54,0.48-0.81,0.75"/>
		<path class="st2" d="M1173.42,856.43c-13.51,19.25-28.72,36.9-46.92,51.98c-14.55,12.06-29.04,24.26-47.09,30.6
			c-13.3,4.68-26.85,8.58-41.25,9.22c-18.45,0.81-36.87-0.09-55.04-2.19c-14.62-1.69-29.28-4.52-43.84-7.41
			c-13.75-2.73-27.83-4.9-42.07-3.57c-1.81,0.17-3.25,0.78-4.93,1.5c-14.69,6.29-29.72,11.31-46.1,9.91
			c-8.38-0.72-16.96-2.48-23.27-7.59c-8.53-6.9-9.1-17.2-5.8-27.27c2.26-6.9,2.46-14.69,8.02-20.3c1.7-1.72,0.92-3.88,0.71-5.67
			c-1.31-11.12,3.72-23.1-4.62-33.38c-1.16-1.43,0.43-4.29,1.44-6.38c4.45-9.24,3.69-19.38,4.89-29.18"/>
		<path class="st2" d="M915.03,283.04c7.56,0.3,14.89-3.54,22.84-0.42c2,0.79,6.82-2.07,8.83-6.03
			c7.2-14.16,17.46-26.37,25.85-39.77c1.23-1.97,3.38-3.64,3.83-5.73c0.43-1.96,1.98-4.89,0.06-6.25c-1.49-1.06-3.63-3.12-6.4-1.08
			c-3.32,2.44-7.65,1.26-11.3,1.42c-19.43,0.85-37.08,9.09-55.82,12.73c-9.26,1.8-14.27,10.46-18.63,18.39
			c-6.17,11.23-12.51,22.55-17.37,34.24c-3.97,9.55-9.37,19.42-8.61,30.61"/>
		<path class="st2" d="M691.47,312.24c-0.65-2.59-2.51-4.27-4.87-4.8c-15.82-3.6-27-14.75-38.68-24.61
			c-8.43-7.12-17.77-12.88-26.24-19.9c-6.21-5.14-15.41-1.12-21.01,7.08c-8.76,12.85-13.36,27.41-15.83,42.28
			c-3.48,20.94-9.3,41.64-8.48,63.21c0.17,4.42,0.48,8.39,4.49,11.55c8.04-7.57,9.75-18.68,14.84-27.89
			c3.19-5.78,6.09-11.25,11.47-15.4c4.18-3.22,7.44-3.41,11.47,0.05c5.48,4.71,9.45,10.6,13.72,16.28"/>
		<path class="st2" d="M610.47,904.28c7.69,0.45,15.22,0,22.71-2.35c10.3-3.23,14.01-12.49,18.39-20.47
			c9.62-17.54,16.73-36.25,23.95-54.93c6.24-16.16,13.3-32.27,27.23-43.96c4.43-3.72,9.34-6.25,14.67-7.95
			c5.03-1.61,12.66,2.7,14.51,8.04c4.26,12.36,5.29,25.3,3.88,38.08c-1.64,14.86-3.93,29.8-3.43,44.62
			c0.45,13.23,3.99,26.24,14.01,36.67c5.89,6.12,12.68,6.16,19.58,5.35c10.44-1.23,17.82-8.27,25.17-15.19
			c11.65-10.97,21.12-23.57,29.12-37.35"/>
		<path class="st2" d="M825.12,360.9c-7.29,10.93-5.75,23.33-3.64,34.8c2.16,11.72,8.34,22.28,18.17,30.14
			c6.73,5.39,12.22,3.83,13.74-4.94c3.06-17.67,3.31-35.26-4.89-51.83c-1.93-3.9-4.66-8.02-8.14-10.37
			c-4.51-3.04-10.03-3.32-14.42,1.39"/>
		<path class="st2" d="M669.6,381.18c-1,8.44-4.49,16.3-4.33,25.15c0.16,8.54,3.75,14.82,9.35,20.1c2.57,2.42,7.35,5.14,10.27,0.12
			c7.83-13.46,15.28-27.1,12.35-43.76c-0.73-4.14-2.8-7.57-4.27-11.29c-1.76-4.49-6.48-6.37-10.47-7.02
			c-3.72-0.6-5.49,3.53-7.49,6.83c-1.81,2.99-3.69,6-5.42,9.07"/>
		<path class="st2" d="M696.33,507.69c20.45,7.76,41.4,11.13,63.18,7.3c17.26-3.04,33.5-8.89,48.6-17.84"/>
		<path class="st2" d="M1171.8,790.74c0.89,12.74,8.2,24.13,7.41,37.31c-0.52,8.7,1.7,17.62-2.55,25.95"/>
		<path class="st2" d="M747.36,477.69c-4.11,11.59,1.94,22.19,3.22,33.25c0.15,1.33,0.02,2.7,0.02,4.05"/>
		<path class="st3" d="M789.48,507.69c4.05,7.3,7.76,14.82,12.26,21.83c3.5,5.45-0.08,7.97-3.4,10.55
			c-3.65,2.83-6.29,0.19-8.88-2.35c-7.1-6.97-10.02-16.06-12.94-25.16"/>
		<path class="st4" d="M769.23,447.27c-1.04,0.52-1.91,1.78-3.23,1.19c-9.53-4.2-19.3-3.8-29.17-1.6"/>
		<path class="st3" d="M599.13,901.85c-5.02,2.91-6.49,8.32-8.8,13.03c-1.03,2.09-0.07,5.05,1.66,6.23
			c1.28,0.88,3.59-0.16,5.64-1.19c5.45-2.75,7.16-8.11,10.42-12.39"/>
		<path class="st3" d="M624.24,905.9c0.53,3.25,1.86,6.27,1.72,9.74c-0.19,4.46-1.44,7.74-5.74,9.79c-4.72,2.25-4.54-3.4-7.32-4.12"
			/>
		<path class="st5" d="M765.99,433.89c-8.15-5.48-16.95-7.87-26.73-5.68"/>
		<path class="st2" d="M937.71,283.85c0.22,8.42-4.87,15.19-7.58,22.6c-3.9,10.68-2.81,21.85-5.33,32.56
			c-0.11,0.45-0.05,1.07-0.86,1.61"/>
		<path class="st3" d="M768.42,908.34c1.88,5.68,6.6,11.41-0.02,17.01c-2.77,2.34-5.58,5.16-9.7,2.46"/>
		<path class="st3" d="M821.88,941.59c-3.51,2.97-6.83,6.23-10.61,8.81c-1.95,1.33-4.52,4.86-7.06,1.62
			c-1.96-2.51-1.96-6.01,0.65-8.81c3.67-3.94,7.51-7.59,12.97-8.91"/>
		<path class="st6" d="M775.71,480.93c-2.85,0.45-5.2-0.61-7.29-2.43c-3.52-3.07-7.69-3.77-12.15-3.23
			c-5.8,0.7-11.35,1.35-17.11-1.43c-4-1.93-8.65,0.71-12.8,1.71c-2.45,0.59-4.82,1.28-7.36,1.34"/>
		<path class="st3" d="M813.78,921.31c-7.96-0.25-14.21,3.21-20,8.77c2.94,3.91,5.27,5.69,9.6,1.93c2.52-2.19,6.35-2.86,9.59-4.21"
			/>
		<path class="st3" d="M739.26,903.47c-2.12,2.75-6.42,3.71-7.09,7.34c-0.36,1.95-2.59,4.38-0.18,6.42
			c1.76,1.48,4.04,1.62,5.57-0.04c1.68-1.83,2.78,0.94,4.13,0.07"/>
		<path class="st3" d="M613.71,905.9c1.16,7.43-1.22,13.25-7.56,18.04c-1-1.99-1.99-3.93-2.97-5.88"/>
		<path class="st3" d="M746.55,911.58c-3.62,1.1-4.26,4.63-4.51,7.33c-0.11,1.21-0.99,4.78,2.08,5.63c3.69,1.02,6.47-0.67,8.91-3.23
			"/>
		<path class="st3" d="M756.27,909.15c-0.16,5.7-2.34,11.49,0.81,17.03"/>
		<path class="st3" d="M797.58,937.53c-5.41,7.13,2.22,5.54,4.86,7.3"/>
		<path class="st7" d="M748.98,907.52c-0.54,0.81-1.08,1.62-1.62,2.43"/>
	</g>
</g>
</svg>
