<?xml version="1.0" encoding="utf-8"?>
<svg x="-399.871pt" y="-74.9313pt" width="1608.84pt" height="2065.18pt" viewBox="-399.871 -74.9313 1608.84 2065.18" xmlns="http://www.w3.org/2000/svg" xmlns:xlink="http://www.w3.org/1999/xlink">
  <defs>
    <title>body</title>
    <g id="1">
      <defs>
        <path id="2" d="M383.228,906.261 C451.6,1000.34,512.001,1089.33,612.422,1152.21 C660.839,1182.53,752.161,1150.43,742.535,1089.01 C727.442,992.702,658.853,934.968,610.455,855.504 C560.43,773.371,492.965,614.636,429.986,551.911 C421.93,582.393,421.304,619.671,403.455,646.064 C320.365,768.928,45.4824,863.424,-94.5838,840.903 C-107.762,838.784,-157.643,816.588,-165.889,828.885 C-188.559,862.69,-167.882,916.576,-123.485,898.14 C-143.569,901.206,-166.299,891.066,-174.983,912.543 C-184.765,936.737,-164.196,955.663,-143.034,961.014 C-151.724,953.909,-162.335,949.486,-172.224,958.302 C-190.167,974.298,-262.407,1177.71,-270.557,1210.29 C-275.708,1230.88,-277.744,1285.54,-270.128,1305.16 C-263.267,1322.84,-240.419,1336.9,-225.539,1347.89 C-160.252,1396.12,-140.28,1310.18,-114.3,1269.01 C-115.373,1342.66,-128.45,1431.92,-111.756,1506.48 C-107.842,1523.96,-106.36,1541.23,-111.285,1558.78 C-134.597,1641.88,-197.114,1746.56,-210.397,1831.62 C-223.42,1915.01,-141.948,1970.83,-70.9665,1945.02 C-22.0117,1927.21,149.215,1713.37,159.221,1661.69 C223.774,1665.3,219.767,1649.76,148.428,1777.52 C136.638,1798.64,128.392,1870.46,139.94,1894.31 C159.552,1934.81,259.009,1935.96,307.286,1912.35 C344.682,1894.06,474.039,1773.63,488.746,1737.84 C510.516,1684.85,589.208,1418.24,581.625,1350.52 C576.783,1307.28,583.502,1277.07,580.521,1237.02 C578.005,1203.21,584.945,1166.48,568.193,1120.66"/>
      </defs>
      <use xlink:href="#2" style="fill:#aaaaaa;fill-opacity:1;fill-rule:nonzero;opacity:1;stroke:none;"/>
    </g>
  </defs>
  <use xlink:href="#1"/>
  <g id="3">
    <title>Group</title>
    <defs>
      <title>tail</title>
      <g id="4">
        <defs>
          <path id="5" d="M566.497,1449.56 C607.417,1537.06,721.242,1521.86,795.066,1487.15 C875.236,1449.44,925.155,1372.12,1027.35,1382.05 C1157.81,1394.74,1016.22,1574.96,1083.98,1621.29 C1156.94,1671.17,1200.18,1531.42,1206.93,1484.85 C1226.85,1347.47,1097.11,1271.25,975.815,1304.54 C899.588,1325.47,864.571,1388.1,758.838,1412.18 C681.323,1429.84,584.125,1414.66,581.153,1322.81 C578.852,1367.37,572.021,1405.21,566.497,1449.56 z"/>
        </defs>
        <use xlink:href="#5" style="fill:#aaaaaa;fill-opacity:1;fill-rule:nonzero;opacity:1;stroke:none;"/>
      </g>
    </defs>
    <use xlink:href="#4"/>
  </g>
  <g id="6">
    <title>handsfeet</title>
    <defs>
      <title>Path</title>
      <g id="7">
        <defs>
          <path id="8" d="M-268.756,1315.12 C-284.252,1315.88,-300.652,1340.16,-293.155,1355.31 C-286.15,1369.45,-269.029,1357.37,-262.702,1349.95 C-264.956,1358.81,-279.505,1379.63,-266.9,1387.01 C-257.052,1392.78,-244.403,1370.55,-241.538,1364.03 C-241.647,1375.49,-249.501,1391.96,-231.348,1393.49 C-216.58,1394.73,-203.854,1374.57,-205.421,1361.27 C-207.875,1340.43,-257.665,1334.16,-268.756,1315.12 z"/>
        </defs>
        <use xlink:href="#8" style="fill:#aaaaaa;fill-opacity:1;fill-rule:nonzero;opacity:1;stroke:none;"/>
      </g>
    </defs>
    <use xlink:href="#7"/>
    <defs>
      <title>Path</title>
      <g id="9">
        <defs>
          <path id="10" d="M660.519,1164.32 C659.381,1201.54,707.345,1209.93,701.439,1171.8 C720.84,1199.12,747.451,1186.51,739.153,1154.64 C745.097,1165.54,758.264,1183.36,767.088,1162.21 C774.81,1143.71,757.107,1121.49,741.938,1113.79 C728.31,1146.47,695.301,1165.83,660.519,1164.32 z"/>
        </defs>
        <use xlink:href="#10" style="fill:#aaaaaa;fill-opacity:1;fill-rule:nonzero;opacity:1;stroke:none;"/>
      </g>
    </defs>
    <use xlink:href="#9"/>
    <defs>
      <title>Path</title>
      <g id="11">
        <defs>
          <path id="12" d="M-207.066,1880.32 C-225.234,1882.87,-262.474,1898.55,-255.334,1923.68 C-248.581,1947.45,-219.159,1923.63,-210.04,1916.1 C-220.108,1921.02,-242.473,1936.07,-235.277,1949.96 C-225.85,1968.14,-203.715,1948.16,-196.81,1938.88 C-197.202,1950.79,-206.743,1974.88,-191.164,1981.59 C-179.373,1986.67,-157.053,1957.75,-155.08,1947.74 C-153.944,1941.99,-199.982,1890.6,-207.066,1880.32 z"/>
        </defs>
        <use xlink:href="#12" style="fill:#aaaaaa;fill-opacity:1;fill-rule:nonzero;opacity:1;stroke:none;"/>
      </g>
    </defs>
    <use xlink:href="#11"/>
    <defs>
      <title>Path</title>
      <g id="13">
        <defs>
          <path id="14" d="M140.592,1898.01 C125.436,1896.13,78.4617,1896.31,78.3539,1919.92 C78.259,1940.71,117.096,1924.89,125.512,1920.65 C112.152,1928.27,89.0035,1950.54,104.016,1966.17 C119.405,1982.19,136.489,1958.5,145.509,1946.14 C137.947,1956.17,116.599,1986.04,141.642,1989.98 C167.03,1993.97,193.602,1953.75,194.691,1931.81 C194.73,1931.03,150.422,1915.32,140.592,1898.01 z"/>
        </defs>
        <use xlink:href="#14" style="fill:#aaaaaa;fill-opacity:1;fill-rule:nonzero;opacity:1;stroke:none;"/>
      </g>
    </defs>
    <use xlink:href="#13"/>
  </g>
  <defs>
    <title>bowlrim</title>
    <g id="15">
      <defs>
        <path id="16" d="M-180.122,734.273 C-232.625,1019.45,568.014,683.155,412.531,546.957 C400.857,562.873,378.077,571.206,363.6,585.495 C226.35,720.965,9.44898,824.608,-180.122,734.273 z"/>
      </defs>
      <use xlink:href="#16" style="fill:#aaaaaa;fill-opacity:1;fill-rule:nonzero;opacity:1;stroke:none;"/>
    </g>
  </defs>
  <use xlink:href="#15"/>
  <defs>
    <title>bowl</title>
    <g id="17">
      <defs>
        <path id="18" d="M20.5749,-74.9313 C256.333,-74.9313,462.215,149.149,462.215,380.842 C462.215,612.537,235.759,783.293,2.21945e-06,783.293 C-235.759,783.293,-399.871,568.817,-399.871,337.123 C-399.871,105.428,-215.184,-74.9313,20.5749,-74.9313 z"/>
      </defs>
      <use xlink:href="#18" style="fill:#aaaaaa;fill-opacity:1;fill-rule:evenodd;opacity:1;stroke:none;"/>
    </g>
  </defs>
  <use xlink:href="#17"/>
  <g id="19">
    <title>Group</title>
    <defs>
      <title>eye</title>
      <g id="20">
        <defs>
          <path id="21" d="M203.766,349.834 C233.417,349.834,257.455,375.526,257.455,407.218 C257.455,438.911,233.417,464.603,203.766,464.603 C174.114,464.603,150.076,438.911,150.076,407.218 C150.076,375.526,174.114,349.834,203.766,349.834 z"/>
        </defs>
        <use xlink:href="#21" style="fill:#aaaaaa;fill-opacity:1;fill-rule:evenodd;opacity:1;stroke:none;"/>
      </g>
    </defs>
    <use xlink:href="#20"/>
    <defs>
      <title>eye</title>
      <g id="22">
        <defs>
          <path id="23" d="M-153.125,379.887 C-129.006,379.887,-109.453,404.086,-109.453,433.937 C-109.453,463.788,-129.006,487.987,-153.125,487.987 C-177.244,487.987,-196.796,463.788,-196.796,433.937 C-196.796,404.086,-177.244,379.887,-153.125,379.887 z"/>
        </defs>
        <use xlink:href="#23" style="fill:#aaaaaa;fill-opacity:1;fill-rule:evenodd;opacity:1;stroke:none;"/>
      </g>
    </defs>
    <use xlink:href="#22"/>
  </g>
  <g id="24">
    <title>nose</title>
    <defs>
      <title>nose</title>
      <g id="25">
        <defs>
          <path id="26" d="M-174.014,611.814 C-175.841,607.165,-177.23,595.08,-170.269,593.563 C-161.263,591.6,-149.213,602.327,-140.004,603.799 C-121.127,606.815,-106.115,601.851,-87.666,599.826 C-80.8594,599.079,-68.9785,599.178,-68.695,608.506 C-68.2064,624.584,-87.3519,621.78,-98.1249,625.218 C-108.848,628.64,-119.434,641.864,-131.52,638.565 C-140.736,636.049,-145.743,625.489,-154.372,621.513 C-161.072,618.427,-171.907,619.87,-174.014,611.814 z"/>
        </defs>
        <use xlink:href="#26" style="fill:#aaaaaa;fill-opacity:1;fill-rule:nonzero;opacity:1;stroke:none;"/>
      </g>
    </defs>
    <use xlink:href="#25"/>
    <defs>
      <title>nose</title>
      <g id="27">
        <defs>
          <path id="28" d="M-130.796,638.487 C-126.817,648.146,-116.299,703.224,-93.1731,687.224 C-84.4263,681.172,-107.532,675.932,-112.145,671.262 C-121.349,661.943,-116.942,649.407,-122.845,638.995"/>
        </defs>
        <use xlink:href="#28" style="fill:#aaaaaa;fill-opacity:1;fill-rule:nonzero;opacity:1;stroke:none;"/>
      </g>
    </defs>
    <use xlink:href="#27"/>
  </g>
  <g id="29">
    <title>Group</title>
    <defs>
      <title>nosedetail</title>
      <g id="30">
        <defs>
          <path id="31" d="M-115.042,535.942 C-105.637,534.08,-89.0715,532.813,-82.8087,541.63 C-87.3287,543.19,-118.813,542.671,-120.684,539.288 C-123.639,533.945,-108.218,535.115,-106.111,535.264"/>
        </defs>
        <use xlink:href="#31" style="fill:#aaaaaa;fill-opacity:1;fill-rule:nonzero;opacity:1;stroke:none;"/>
      </g>
    </defs>
    <use xlink:href="#30"/>
    <defs>
      <title>nosedetail</title>
      <g id="32">
        <defs>
          <path id="33" d="M-140.475,564.751 C-137.416,558.139,-126.919,564.074,-121.138,564.631 C-118.562,564.879,-106.432,564.328,-107.295,568.01 C-109.87,578.998,-144.671,575.685,-140.475,564.751 z"/>
        </defs>
        <use xlink:href="#33" style="fill:#aaaaaa;fill-opacity:1;fill-rule:nonzero;opacity:1;stroke:none;"/>
      </g>
    </defs>
    <use xlink:href="#32"/>
  </g>
  <g id="34">
    <title>Group</title>
    <defs>
      <title>eardetail</title>
      <g id="35">
        <defs>
          <path id="36" d="M-187.666,293.963 C-188.636,281.491,-183.429,225.483,-176.416,226.437 C-171.167,227.151,-137.688,288.031,-131.561,297.124 C-152.31,298.048,-166.962,295.428,-187.666,293.963 z"/>
        </defs>
        <use xlink:href="#36" style="fill:#aaaaaa;fill-opacity:1;fill-rule:nonzero;opacity:1;stroke:none;"/>
      </g>
    </defs>
    <use xlink:href="#35"/>
    <defs>
      <title>eardetail</title>
      <g id="37">
        <defs>
          <path id="38" d="M213.731,233.409 C214.668,215.107,223.269,182.636,231.091,166.092 C247.528,178.541,257.233,212.947,266.499,232.262 C249.51,233.174,230.837,232.368,213.731,233.409 z"/>
        </defs>
        <use xlink:href="#38" style="fill:#aaaaaa;fill-opacity:1;fill-rule:nonzero;opacity:1;stroke:none;"/>
      </g>
    </defs>
    <use xlink:href="#37"/>
  </g>
  <g id="39">
    <title>Group</title>
    <defs>
      <title>eyedetail</title>
      <g id="40">
        <defs>
          <path id="41" d="M146.46,481.844 C140.648,469.15,175.373,491.566,185.003,493.399 C199.889,496.232,235.144,491.571,234.777,497.466 C233.471,518.467,147.317,499.754,146.46,481.844 z"/>
        </defs>
        <use xlink:href="#41" style="fill:#aaaaaa;fill-opacity:1;fill-rule:nonzero;opacity:1;stroke:none;"/>
      </g>
    </defs>
    <use xlink:href="#40"/>
    <defs>
      <title>eyedetail</title>
      <g id="42">
        <defs>
          <path id="43" d="M-179.239,512.638 C-180.613,511.785,-195.678,499.741,-189.974,498.332 C-188.466,497.96,-187.279,500.398,-186.642,501.313 C-181.006,509.409,-171.165,513.645,-161.618,514.973 C-156.547,515.679,-127.418,511.353,-128.195,518.84 C-129.677,533.113,-172.005,514.741,-179.239,512.638 z"/>
        </defs>
        <use xlink:href="#43" style="fill:#aaaaaa;fill-opacity:1;fill-rule:nonzero;opacity:1;stroke:none;"/>
      </g>
    </defs>
    <use xlink:href="#42"/>
  </g>
</svg>
