<svg xmlns="http://www.w3.org/2000/svg" viewBox="0 0 1044.47 1161.76"><path d="M949.69,1011.94c-3,.61-3.44,3.22-4.63,5a319.93,319.93,0,0,1-40.19,49.56c-19.06,19.22-40.28,35.89-62,51.79-26.58,19.43-57.11,29.54-89.24,35.32-34.2,6.15-68.38,3.36-102.38-1.12-35.93-4.74-71.65-11-107.5-16.3a102.84,102.84,0,0,0-56.66,7.55c-10.49,4.53-21.58,6.66-32.83,8.08-17.11,2.16-34.1,1-50.1-5.25-7.65-3-12.28-1.42-17.42,3.82a39.29,39.29,0,0,1-14.85,9.88c-9.15,3.24-12.53,1.36-13.95-8.46-.3-2.1-.83-2.47-2.7-3-8.67-2.66-9.9-5.11-6.78-13.6,1-2.63,1.85-4.07-1-6.61-5.06-4.54-4.77-7.72,0-12.53,5.5-5.58,12.26-9.74,19.82-11,8.58-1.39,11-5.88,12-13.86,1.12-9.57,4.79-18.7,9.12-27.35,8.13-16.27,5.74-32.89,2.67-50.24-3.83,1.24-4.33,4.51-5.66,6.81-13.58,23.46-32.59,42-53.38,58.83-1.8,1.47-3.67,3.13-5.8,3.86-9,3.07-13.36,7.89-9.5,18,1.5,3.94-.29,8.56-2.68,12.36-7.89,12.54-20.17,12.73-29.51.42-2.82.1-4.43,2.66-6.9,3.54-5.9,2.09-12,.66-14.61-4.84-1.9-4-3.85-5.06-8.15-5.22-10.34-.38-13.26-5.86-8.9-15.42a39.08,39.08,0,0,1,11.76-14.66c2.63-2.06,4.07-4.06,2-7.54C242.53,1041,246,1009.5,248,978.3c1.29-19.59,3.67-39.1,2.68-58.79-.47-9.36-1.53-18.61-5.85-27.11-5.42-10.66-10.72-12.66-21.94-8.51a53.32,53.32,0,0,0-18.27,11.92c-8.53,8.11-15.19,17.63-20.94,27.83-9,16-16,32.89-22.34,50.09a525.8,525.8,0,0,1-36.07,78.9,128.2,128.2,0,0,1-11.39,17.58c-5.85,7.21-13,12.36-22.39,13.78-6.5,1-7.65,2.25-5.16,8.51,1.24,3.13,1.12,6.52.7,9.87-.94,7.49-4.33,13.1-11.62,16.09-7.08,2.89-11.1-1.75-15.05-6.06-10.95,6.37-12.33,6.09-18.69-3.61-5.06,2.51-10.46,5.78-15.56.75-4.94-4.89-3.73-11-1.61-16.83a55.3,55.3,0,0,1,8.4-14.67c1.45-1.9,2.86-3.71.79-6.14C20.61,1056.48,20.1,1037.57,20,1019c-.25-33.62.8-67.25.59-100.86-.26-40.27-1.47-80.51-4.56-120.71-2.43-31.51-3.72-63.13-5-94.72C9.41,661,16.57,620.43,27.89,580.53c11.18-39.39,21.43-79,28-119.46,5.59-34.56,8.82-69.32,6.1-104.42-1.44-18.44,2-36.48,5.56-54.45,4.63-23.19,10-46.18,18.15-68.43,1.75-4.79,1.67-9-.92-13.32-4.29-7.18-8.75-14.22-15.81-19.07-5.86-4-8.77-3.77-14.25.83-6.83,5.73-10.91,13.35-14.49,21.28-5.88,13-11.45,26.23-18.28,38.82a39.27,39.27,0,0,1-5.41,8.32c-4.48,4.76-10.13,3.87-12.93-2A30.06,30.06,0,0,1,1.12,259a233.29,233.29,0,0,1,.59-50.81C5,179.7,11,151.74,17.71,123.9c3.59-15,10.1-28.86,16.82-42.62a50.14,50.14,0,0,1,4.8-7.58c12.39-16.86,28.08-19.56,44.91-7.29,10.21,7.45,20.17,15.29,29.86,23.4,11.76,9.84,24,19,36,28.53,11.18,8.89,24.5,13.23,37.3,18.73,2.4,1,4.52,0,6.77-.55,11.34-2.73,22.31-2.17,33,3.22,9.14,4.61,19.37,4.89,29.25,5.56q28.42,1.92,56.55,6c6.23.89,12.63.68,18.95.72q34.46.24,68.92.26c10.1,0,19.91,1.21,29.14,5.61a21,21,0,0,0,3.69,1.51c5.48,1.42,7.67.25,9.54-5.43,2.18-6.63,3.95-13.41,6.21-20,9.65-28.13,23.51-54.31,37.52-80.41,2-3.8,4.74-7.24,7.12-10.85,6.49-9.86,15.21-16.76,26.81-19.44,27.51-6.35,54.06-16.66,82.27-20.11,10.56-1.29,21.16-2.36,31.77-3,10.41-.67,13.28,3.74,8.88,13.48C638.4,25.42,631.27,36.28,624,47q-11.82,17.32-23.41,34.8c-3.14,4.7-6.33,9.37-8.07,14.87-1.05,3.31-3.08,6.14-6.56,7-4.22,1-5.54,4.11-7,7.6-9.41,22.91-16.91,46.21-17.22,71.37-.06,4.91.74,8.29,5.11,10.71,3.19,1.77,6.16,3.94,9.25,5.91,19.07,12.18,38.38,24,56.59,37.48,18.46,13.72,37.89,26.15,59.56,34.23,43.93,16.38,77.53,45.86,105.92,82.13q28,35.81,53.53,73.43c12.51,18.47,25,36.93,38.76,54.53a104.89,104.89,0,0,1,7.95,11.49c16.75,28.79,36.65,55.64,52.88,84.68,16,28.7,32.71,57.22,44.1,88.3,4.24,11.58,9.7,22.62,14.83,33.81s9,22.86,9.18,35.48c.24,16.44,5,32.17,8.39,48.07,4.57,21.13,9.13,42.26,13,63.53,5.9,31.94,4.42,63.56-2.78,95.12-4,17.51-6.42,35.34-10.88,52.77-2.92,11.38-2.07,23.1-1.7,34.77.73,23.07-3.25,45.09-16.5,64.67a69,69,0,0,1-12.66,14c-16.83,14.34-46.86,1.85-51.34-16.77-4.12-17.14-2.44-33.7-.13-50.5C946.14,1031,948,1021.56,949.69,1011.94ZM945.2,896.77c.31.19.77.3.86.54,5,14.07,9.63,28.28,14.12,42.53,4.67,14.83,1.5,30.44,5.34,45.29.4,1.51-.28,3.29-.38,5-1.12,19-7.49,37.16-9.45,56.05-1.43,13.9-3.41,27.76.73,41.6a17.83,17.83,0,0,0,9.88,11.76c11.36,5.42,19.1,4.2,27.68-5.28a72.75,72.75,0,0,0,15.93-29.65A123.93,123.93,0,0,0,1014,1031c0-12.94-1.29-25.92,1.65-38.8,3.49-15.24,6.34-30.62,9.56-45.91,5.44-25.8,9.71-51.67,6.69-78.22a475.27,475.27,0,0,0-8.07-48.21c-3.78-17.22-6.56-34.75-11.8-51.52-4.34-13.85-5.93-27.88-7-42-.58-7.47-1.89-14.38-4.93-21.12-5.2-11.52-10.91-22.81-15.26-34.72-11.23-30.77-27.72-59-43.6-87.41-16.22-29-36.07-55.92-52.88-84.66a98.4,98.4,0,0,0-7.4-10.66c-13.7-17.62-26.23-36.06-38.74-54.53Q817,396,789.33,360.59C763.08,327.05,732.52,299,692,283.44c-23.8-9.12-45.56-22-65.87-37.21-21.12-15.76-43.9-28.92-65.8-43.44a19,19,0,0,0-11.15-3.6,80.59,80.59,0,0,1-42-11A182.38,182.38,0,0,0,460,169.55c-4.67-1.15-9-1.72-13.66-.13A27.63,27.63,0,0,1,424.12,168a35.79,35.79,0,0,0-16.41-3.61c-44.26,0-88.51.09-132.51-5.9-20-2.72-40.43-1.85-59.6-10.52-9.08-4.11-19-2.15-26.95,5.17-5.16,4.75-11.1,8.47-16.92,12.35C156,176,140,186.33,125.56,198.67c-14.17,12.1-25.45,26.3-31,44.45C81.67,285.6,71,328.36,73.78,373.44c1.68,27.66-1.15,55.2-5.38,82.56C62,497.16,52.14,537.53,40.71,577.55c-11.2,39.21-19.23,78.91-17.86,120,.87,25.94,1.87,51.89,3.41,77.8,2.46,41.53,5.86,83,5.58,124.65-.29,41.28-.08,82.57-.15,123.85a92.16,92.16,0,0,0,4,28.54c2.3,7.22,6.33,13.26,13.23,16.82,13.45,6.92,27.63,6.65,41.86,3.34,10.73-2.5,15.91-11.4,21.16-20,1.56-2.55,3-5.22,4.43-7.82,14.67-25.84,26.08-53.13,36.34-81,6.57-17.82,14.31-35.12,24.19-51.4,6.6-10.88,14.38-20.83,24.29-28.92,7.84-6.4,16.47-11.19,26.7-12.69,9.48-1.39,17,1.75,22.77,9.26a48.58,48.58,0,0,1,9,19.82,162.1,162.1,0,0,1,2.67,44.71c-1.34,19.58-3.31,39.11-4.31,58.73a149.41,149.41,0,0,0,1.88,34.81c2.46,13.26,7.61,25.4,17.38,35.27,6.75,6.83,14.7,8.84,23.74,7,9.22-1.86,17.79-5.26,25.28-11.25,9.92-7.93,18.8-16.9,27.62-26,18.08-18.62,29.45-40.94,36.22-65.74,3.6-13.15,6.8-26.41,10.14-39.63.7-2.78.65-5.88,4.73-8.69.2,16.15,2.17,31.45-2.54,46-3.77,11.68-3.46,22.77-.37,34.2.17.64.34,1.29.46,1.94,4.1,21.68,4.81,43-6.23,63.22-1.89,3.46-2.89,7.44-4.05,11.25-2.36,7.68-4.2,15.63-3.1,23.6,1.4,10.2,2.94,20.9,14.59,25.26,16.84,6.31,34.15,7.84,52,5.53,14.72-1.9,28.17-7.72,42.06-12.17,11.57-3.7,23.4-5.76,35.4-4.32q29.7,3.56,59.23,8.5c40,6.65,80.07,13.35,120.85,13.14,51.64-.28,98.34-14.67,138.4-48.22,6.37-5.34,13.09-10.28,19.49-15.6,26.82-22.28,50.2-47.55,68.13-77.69,12.84-21.6,16.46-44,7.36-67.87-.95-2.48-1.57-5.09-2.3-7.65-2.38-8.44-2.5-17.09-2.18-25.76C942.4,900.19,942.49,897.77,945.2,896.77Zm-409-797.39c6.47-2.27,12.09-4.11,17.61-6.2,6.15-2.33,12.53-.86,18.75-1.52,4-.43,8.88-.35,11.35-4.76,12.23-21.79,27.93-41.31,40.94-62.59,2-3.3,4.42-6.52,5.27-11.17-11.92-1.14-23,.83-34,2.64-22.66,3.73-44.16,12.24-66.63,16.8-13.29,2.69-22.85,10.05-29.46,21.7-16.9,29.83-32.63,60.21-42.78,93.13-2.59,8.39-2.58,8.87,5.75,10.92a195.18,195.18,0,0,1,51.59,20.74c8.43,4.88,17.87,7.15,27.46,8.51,7.32,1,8.16.39,8.32-6.91a166,166,0,0,1,12-58.28c1.84-4.63,3.53-9.32,5.29-14,1.46-3.88,0-5.68-4-5.65-6,0-12,.22-18,.11C542.53,102.8,538.92,103.81,536.17,99.38ZM11.84,252.29c4.29-2.16,4.87-5.24,6.06-7.79,4.51-9.64,8.82-19.37,13.28-29,4.09-8.86,9.49-16.78,17.12-23,8.39-6.86,15.44-7.5,24.77-2.11,6.76,3.9,11.82,9.58,16.37,15.83,1.84,2.52,2.66,6.19,6.82,7,11.68-15.67,26.33-28.12,42.35-39.06C149.05,167,159.55,160,170,152.79c2.79-1.93,6.44-3.21,7.48-7.69a106.18,106.18,0,0,1-33.88-17.38c-12.22-9.2-24.31-18.58-36.07-28.39-10-8.3-20.13-16.39-30.63-24-10.92-7.93-19.3-6.39-27.44,4.27A43.81,43.81,0,0,0,44.05,88c-4.22,9.4-9.15,18.65-12,28.48C21.94,152,14.64,188.18,11.93,225.12,11.29,233.88,11.84,242.71,11.84,252.29Zm281.05,850.14a27.46,27.46,0,0,0,.21,3.26c.64,3.42-.18,8.2,4.54,8.82,4.25.55,7.22-2.7,9.4-6.25a11.18,11.18,0,0,0,1.28-7.69c-.93-6.85-4.57-9.55-10.58-8.3C291.26,1093.62,293.92,1099,292.89,1102.43Zm-225.2-3a62.75,62.75,0,0,0,.62,6.88c.29,1.55.91,3.39,2.65,3.91,2.22.65,3.79-.92,5.09-2.38,3.22-3.64,3.59-16.27.71-20-1.76-2.31-6.06-1.92-7.49.84C67.68,1091.63,67.94,1095,67.69,1099.39ZM32,1103.17c7.91-3.39,12.17-9.57,16.42-15.66,1.18-1.7,3.26-4-.2-5.66-2.24-1.06-4.73-3.17-7.06-.23C36.33,1087.73,31.12,1093.72,32,1103.17Zm239.19-19.09c-1.27-2.26-3.11-3.47-5.63-1.88a28.94,28.94,0,0,0-11.7,13.15c-.77,1.78-.2,3.41,2,3.33,3-.12,14.67-10.61,15.27-13.55A6,6,0,0,0,271.19,1084.08Zm11.85,9.39a2.73,2.73,0,0,0-1.41-2.72c-1.83-1-3,.38-4.05,1.67a34.21,34.21,0,0,0-6,12.26c-.41,1.5-.7,3.33,1.3,4.19a3.43,3.43,0,0,0,3.62-.92C280.51,1104.63,282.38,1100.2,283,1093.47Zm85.12,58c7.45-1.52,12.4-6.73,17.58-11.59,1.43-1.35,1.05-2.95-.1-4.4-1.4-1.77-2.88-1.13-4.24,0C376,1139.72,371.05,1144.49,368.16,1151.42Zm12.68-28.32c-9.28.59-18.18,6.66-22.86,16.05C366.2,1133.27,374.62,1130.59,380.84,1123.1Zm-24.07-3c10.36-2.53,11-2.83,17.32-8.5C367.72,1113.72,361.61,1114.82,356.77,1120.14ZM58,1091.56c-2.47,3.47-4.52,7-3.92,12.49C57.45,1099.67,58.87,1096,58,1091.56Z"/><path d="M265.88,384.41c10.83,2.36,21.1,1.47,31.3-.25,13.77-2.32,29.55,17.9,26.27,30.94-1,4-3.2,6.39-7.12,7.45a29.43,29.43,0,0,1-17.67-.42,29.51,29.51,0,0,0-8.72-1.92,3.82,3.82,0,0,0-4.28,3.21c-2.83,10.62-5,21.21-2,32.22,1.56,5.72,2.42,6.87,8.28,5.44,26.17-6.37,52.21-13.2,75.18-28.13,3.22-2.09,6.66-4.33,9.51-.17,2.59,3.77.27,7-2.79,9.45-5.48,4.4-11.83,7.37-18,10.64-6,3.18-5.89,3.15-2.6,9.45,3.37,6.49,6.57,13.06,9.77,19.64a38.15,38.15,0,0,1,3.43,12.46,16.43,16.43,0,0,1-8.63,16.67c-6.28,3.11-12.16,2.32-17.6-2.25a62.71,62.71,0,0,1-14.42-17.69,107.29,107.29,0,0,1-7.49-16.3c-2.62-7.33-2.74-7.29-10.7-5.45-1,.23-1.94.46-2.9.71-27,7-54,5.41-81-.53-4.87-1.07-9.72-2.2-14.58-3.32-5.24-1.2-10.22-3-14.24-6.74-2.13-2-3-4.5-1.32-7.18a4.92,4.92,0,0,1,6.95-1.89c12,6.3,25.41,7.52,38.33,10.27a110.64,110.64,0,0,0,28.74,2.52c4-.2,5.36-1.73,4.81-5.51-.72-4.93-1.4-9.87-2-14.82a5.73,5.73,0,0,0-2.3-4.23c-6.16-4.52-8-11-9.07-18.17-.91-6.3-1.78-6.56-7.79-4.58-.63.21-1.25.45-1.88.67-9.7,3.33-15.7,1.87-19.12-4.67-3.11-5.95-.54-15.7,5.54-20.66a27.25,27.25,0,0,1,13.69-5.55c1-.14,2-.2,3-.25C257.15,385.24,261.84,385.89,265.88,384.41Zm70.35,88.17c-3-2.48-3-7.85-9.3-9.42,4,14.1,9.25,25.86,19,35.31a10.26,10.26,0,0,0,1.54,1.25c4,2.67,7,1.16,7.22-3.79a17.86,17.86,0,0,0-2.07-8.61c-3.12-6.56-6.37-13.06-9.62-19.56-1-2.06-2.18-4.07-3.35-6.06-1-1.74-2.67-1.9-4.28-1.11s-1.09,2.12-.6,3.39q1.44,3.69,2.86,7.38Z"/><path d="M451.45,287.29c.17,9.35-.36,17.65-2.27,25.77a53.83,53.83,0,0,1-3.75,11.29c-5.25,10.69-14.72,13.79-24.84,7.47-15.86-9.92-26-24.66-31.47-42.28-6.22-20.09-6.14-40.7-1.66-61.13,4-18.26,23.71-24.34,37.85-12,13.69,12,19.35,28.29,23.61,45.16A84.31,84.31,0,0,1,451.45,287.29Zm-55.2-32.74h.36c0,3.66-.13,7.32,0,11,.78,19.82,8.1,36.82,22.34,50.67,3.49,3.4,7.33,8.29,12.55,6.55s5.61-7.93,6.54-12.72c3.33-17.2,3.1-34.45-1.78-51.32-3.23-11.17-7.42-22.13-15.62-30.83-8-8.46-13.27-7.91-19.93,1.55a17.47,17.47,0,0,0-3.37,9.22C397.05,244,396.62,249.25,396.25,254.55Z"/><path d="M139.38,291.89a130.57,130.57,0,0,1,11.44-48.81,46.32,46.32,0,0,1,11.58-16c5-4.32,10.09-5,16.49-2.4,9.71,4,15.54,10.89,18.75,20.53a62.72,62.72,0,0,1,3.52,19.51c.09,20-4.37,38.89-14.32,56.26-10.22,17.83-23.75,19-37.35,3.71C141.48,315.66,139.42,304.76,139.38,291.89Zm11.77-.49c-.34,10.22.81,20,8.81,27.49,7,6.65,10.59,6.46,15.65-1.83,10.11-16.59,14.41-34.79,13.66-54.16a50.34,50.34,0,0,0-4.35-18.27c-2.51-5.77-7.31-7.23-12.76-7.88-5.2-.62-6.7,3.77-8.51,7C155.39,258.52,152,274.66,151.15,291.4Z"/><path d="M278.3,343.9c10,0,19.82,1.34,29.05,5.47,7.59,3.39,11,8.26,9.74,13.21-1.26,4.79-7.1,8.46-14.78,7.38-12.24-1.73-24.43-1.51-36.68-1.07a21,21,0,0,1-4.94-.42c-8.48-1.76-11.23-8.51-6.24-15.59a20.34,20.34,0,0,1,15.89-8.95C273,343.76,275.64,343.9,278.3,343.9Z"/><path d="M274.53,317.55a47.47,47.47,0,0,1,23.26,5.77,25.44,25.44,0,0,1,10.76,11.3,5.81,5.81,0,0,1-.6,6.55c-1.79,2.26-4.28,3.69-6.95,2.4-10.6-5.09-22.08-3.32-33.15-4.68a29.67,29.67,0,0,1-5.87-.84c-6-2.08-8-8.3-4.52-13.59C261.77,317.79,263.62,317,274.53,317.55Z"/><path d="M287.37,251.18c5.87.27,12,1.47,17.44,4.83,2.95,1.82,5.21,4.32,4.16,8.13s-4.28,4.81-7.79,4.44c-5.23-.55-10.47-1.21-15.63-2.19-6.84-1.3-9.22-3.79-8.84-8.5S280,251.26,287.37,251.18Z"/><path d="M296.45,307.9c-7.35-1.32-12.88-2.32-18.41-3.3a9.17,9.17,0,0,1-6.23-4.51c-1.43-2.22-3.25-4.39-1.94-7.26,1.49-3.29,4.53-3.78,7.57-3.39,7.58,1,15,2.74,21.59,6.74,2.71,1.65,4.13,4.39,2.84,7.69S297.88,308,296.45,307.9Z"/><path d="M300.48,227.18c-.15,3.72-5.85,9.12-9.37,8.88-3.33-.22-5.93-4-5.59-8.1.4-4.8,4.1-8.41,8.33-8.15A7.34,7.34,0,0,1,300.48,227.18Z"/><path d="M337.63,471.36q-1.42-3.69-2.86-7.38c-.49-1.27-.91-2.65.6-3.39s3.26-.63,4.28,1.11c1.17,2,2.32,4,3.35,6.06,3.25,6.5,6.5,13,9.62,19.56a17.86,17.86,0,0,1,2.07,8.61c-.26,4.95-3.18,6.46-7.22,3.79a10.26,10.26,0,0,1-1.54-1.25c-9.75-9.45-15-21.21-19-35.31,6.33,1.57,6.3,6.94,9.3,9.42.77,2.83,1.53,5.65,5.2,6.85C341.4,475.6,339.43,473.52,337.63,471.36Z" fill="#fff"/><path d="M396.25,254.55c.37-5.3.8-10.6,1.11-15.9a17.47,17.47,0,0,1,3.37-9.22c6.66-9.46,12-10,19.93-1.55,8.2,8.7,12.39,19.66,15.62,30.83,4.88,16.87,5.11,34.12,1.78,51.32-.93,4.79-1.38,11-6.54,12.72s-9.06-3.15-12.55-6.55c-14.24-13.85-21.56-30.85-22.34-50.67-.15-3.65,0-7.31,0-11Z" fill="#fff"/><path d="M151.15,291.4c.89-16.74,4.24-32.88,12.5-47.65,1.81-3.23,3.31-7.62,8.51-7,5.45.65,10.25,2.11,12.76,7.88a50.34,50.34,0,0,1,4.35,18.27c.75,19.37-3.55,37.57-13.66,54.16-5.06,8.29-8.6,8.48-15.65,1.83C152,311.35,150.81,301.62,151.15,291.4Z" fill="#fff"/><path d="M337.63,471.36c1.8,2.16,3.77,4.24,3.8,8.07-3.67-1.2-4.43-4-5.2-6.85Z"/><path d="M403.94,928.49c-2.08,4.12.08,8.88-2,13" fill="none" stroke="#000" stroke-linecap="round" stroke-linejoin="round" stroke-width="2"/><path d="M543.81,99.3c-2.67,2-5.33,1-8,0" fill="none" stroke="#000" stroke-linecap="round" stroke-linejoin="round" stroke-width="2"/><path d="M331,460a59.27,59.27,0,0,0,11,19" fill="none" stroke="#000" stroke-linecap="round" stroke-linejoin="round" stroke-width="2"/></svg>